<svg width="52" height="24" viewBox="0 0 52 24" fill="none" xmlns="http://www.w3.org/2000/svg">
<path fill-rule="evenodd" clip-rule="evenodd" d="M10.2205 0.847384C9.86976 1.00575 9.62726 1.28808 9.49163 1.69477C9.3562 2.10165 9.28819 2.71179 9.28819 3.52536V20.4746C9.28819 21.2882 9.3562 21.8983 9.49163 22.3052C9.62726 22.7119 9.86976 22.9946 10.2205 23.1526C10.5706 23.311 11.1071 23.39 11.8305 23.39C14.068 23.39 15.6833 22.4237 16.678 20.4917C17.6725 18.5593 18.1697 15.6837 18.1697 11.8644C18.1697 8.04559 17.6554 5.21508 16.6273 3.37283C15.5988 1.53135 13.9885 0.609938 11.7967 0.609938C11.0961 0.609938 10.5706 0.689605 10.2205 0.847384ZM11.2882 0C15.9662 0 19.4691 0.999919 21.7969 2.99995C24.1243 4.99998 25.2885 7.90997 25.2885 11.7287C25.2885 14.1924 24.7174 16.345 23.5764 18.1864C22.435 20.0287 20.791 21.4576 18.6444 22.4747C16.4971 23.4917 13.9435 24 10.9832 24H0V23.322C0.723027 23.2772 1.24844 23.1866 1.57644 23.051C1.90365 22.9154 2.124 22.6558 2.23728 22.2712C2.35018 21.8873 2.40692 21.2661 2.40692 20.4068V3.59318C2.40692 2.73452 2.34435 2.11331 2.22038 1.72878C2.09583 1.34482 1.87567 1.08464 1.55953 0.949009C1.24261 0.813381 0.723027 0.723416 0 0.677947V0H11.2882Z" fill="#FEFEFE"/>
<path fill-rule="evenodd" clip-rule="evenodd" d="M49.3563 1.72878C49.4692 1.34462 49.6895 1.08464 50.0173 0.949009C50.3447 0.813381 50.8702 0.723416 51.5938 0.677947V0H42.6837L37.085 14.4067L30.6783 0H20.8475V0.677947C20.8475 0.677947 23.3592 0.666677 24.0342 2.20328L33.6081 24H34.1224L42.3054 3.08467V20.4068C42.3054 21.2661 42.2376 21.8873 42.1021 22.2712C41.9665 22.6558 41.7121 22.9154 41.3393 23.0508C40.9664 23.1866 40.3733 23.277 39.5596 23.322V24H51.5938V23.322C50.8702 23.277 50.3504 23.1866 50.0342 23.0508C49.7175 22.9154 49.4974 22.6558 49.3734 22.2712C49.2488 21.8873 49.1869 21.2661 49.1869 20.4068V3.59318C49.1869 2.73452 49.243 2.11331 49.3563 1.72878Z" fill="#FEFEFE"/>
</svg>
