<svg width="111" height="44" viewBox="0 0 111 44" fill="none" xmlns="http://www.w3.org/2000/svg">
<mask id="path-1-inside-1" fill="white">
<path fill-rule="evenodd" clip-rule="evenodd" d="M111 0H0V32L48.0718 32L55 44L61.9282 32H111V0Z"/>
</mask>
<path fill-rule="evenodd" clip-rule="evenodd" d="M111 0H0V32L48.0718 32L55 44L61.9282 32H111V0Z" fill="white"/>
<path d="M0 0V-1H-1V0H0ZM111 0H112V-1H111V0ZM0 32H-1V33H3.96771e-08L0 32ZM48.0718 32L48.9378 31.5L48.6491 31H48.0718V32ZM55 44L54.134 44.5L55 46L55.866 44.5L55 44ZM61.9282 32V31H61.3509L61.0622 31.5L61.9282 32ZM111 32V33H112V32H111ZM0 1H111V-1H0V1ZM1 32V0H-1V32H1ZM48.0718 31L-3.96771e-08 31L3.96771e-08 33H48.0718V31ZM55.866 43.5L48.9378 31.5L47.2058 32.5L54.134 44.5L55.866 43.5ZM61.0622 31.5L54.134 43.5L55.866 44.5L62.7942 32.5L61.0622 31.5ZM111 31H61.9282V33H111V31ZM110 0V32H112V0H110Z" fill="black" mask="url(#path-1-inside-1)"/>
</svg>
